<?xml version="1.0" encoding="UTF-8"?>
<svg width="150" height="150" version="1.1" viewBox="0 0 39.688 39.688" xmlns="http://www.w3.org/2000/svg">
  <g transform="matrix(1.1194 0 0 1.1194 -75.457 -118.81)" stroke-width=".26458">
    <path class="cls-3" d="m85.136 141.59a17.727 17.727 0 0 1-17.727-17.727 17.727 17.727 0 1 1 35.454 0 17.727 17.727 0 0 1-17.727 17.727" fill="#212121"/>
    <path class="cls-2" d="m88.332 116.68-2.1378 3.4555h-5.3102a6.3817 6.3817 0 0 0-6.3817 6.3844v-5.8394a7.4454 7.4454 0 0 1 7.4586-7.4586h4.2333z" fill="#ff6500"/>
    <path class="cls-4" d="m95.78 121.21v5.842a7.448 7.448 0 0 1-7.448 7.448h-4.2545l-2.1167-3.4581 2.1167-3.4581h5.3181a6.3844 6.3844 0 0 0 6.3844-6.3738" fill="#ffa000"/>
    <path class="cls-5" d="m81.961 127.59v6.9162a7.4454 7.4454 0 0 1-7.4586-7.448v-0.52917a6.3817 6.3817 0 0 1 6.3817-6.387h0.52917a1.5875 1.5875 0 0 0-1.5875 1.5875v4.2651a1.5875 1.5875 0 0 0 1.5875 1.5875z" fill="#ffb188"/>
    <path class="cls-6" d="m95.78 120.68v0.52917a6.3844 6.3844 0 0 1-6.3844 6.3738h-0.52917a1.5875 1.5875 0 0 0 1.5875-1.5875v-4.2571a1.5875 1.5875 0 0 0-1.5875-1.5875h-0.52917v-6.9294a7.448 7.448 0 0 1 7.4427 7.4586" fill="#ffd183"/>
  </g>
</svg>
